<?xml version="1.0" encoding="UTF-8" standalone="no"?>
<!DOCTYPE svg PUBLIC "-//W3C//DTD SVG 1.1//EN" "http://www.w3.org/Graphics/SVG/1.1/DTD/svg11.dtd">
<svg width="100%" height="100%" viewBox="0 0 343 261" version="1.1" xmlns="http://www.w3.org/2000/svg" xmlns:xlink="http://www.w3.org/1999/xlink" xml:space="preserve" xmlns:serif="http://www.serif.com/" style="fill-rule:evenodd;clip-rule:evenodd;stroke-linejoin:round;stroke-miterlimit:2;">
    <g id="Artboard1" transform="matrix(0.784314,0,0,1.31034,-0.175038,298.349)">
        <rect x="0.223" y="-227.687" width="436.478" height="198.555" style="fill:none;"/>
        <g transform="matrix(1.3,0,0,1,-46.1641,9.93954)">
            <g transform="matrix(0.980769,0,0,0.763158,45.5498,-233.954)">
                <path d="M160.869,220.076C144.266,229.547 127.688,239.064 111.008,248.399C109.724,249.118 107.354,249.194 106.105,248.485C83.218,235.5 60.408,222.378 37.619,209.221C25.599,202.281 13.651,195.216 1.336,188.104C1,146.312 1,104.625 1.364,62.459C8.519,58.111 15.329,54.275 22.099,50.368C38.483,40.913 54.862,31.449 71.217,21.944C83.166,15 95.074,7.984 107,1C107.75,1 108.5,1 109.757,1.328C118.632,6.396 126.988,11.16 135.374,15.871C143.886,20.654 152.428,25.384 161.023,30.474C163.758,32.237 166.427,33.664 169.222,35.41C184.323,44.391 199.319,53.018 214.227,61.796C215.171,62.352 215.924,64.076 215.927,65.259C216.014,105.192 216.031,145.126 215.885,185.059C215.879,186.681 214.609,188.987 213.233,189.805C203.692,195.477 193.921,200.758 184.32,206.331C179.144,209.335 174.159,212.668 168.707,215.871C165.841,217.285 163.355,218.68 160.869,220.076M208.984,93.208C208.971,91.785 208.958,90.362 208.99,88.01C208.993,82.855 208.753,77.685 209.082,72.551C209.32,68.83 207.798,66.892 204.673,65.186C196.381,60.659 188.265,55.809 179.681,50.532C178.429,50.038 177.177,49.544 175.29,48.768C170.197,45.796 165.103,42.824 159.684,39.266C157.101,37.862 154.518,36.457 151.292,34.78C141.138,28.842 130.55,23.522 120.958,16.784C112.172,10.613 104.457,9.745 96.254,16.938C96.144,17.034 95.914,16.98 95.776,17.06C67.744,33.27 39.739,49.525 11.651,65.637C8.997,67.16 7.937,68.826 7.944,71.877C8.031,107.54 8.037,143.204 7.934,178.867C7.925,181.933 8.928,183.495 11.619,185.004C25.734,192.921 39.689,201.124 53.717,209.198C69.872,218.497 86.212,227.49 102.109,237.208C106.993,240.194 110.229,240.206 114.992,237.158C127.061,229.435 139.575,222.404 152.659,215.027C155.138,213.653 157.618,212.279 160.746,210.707C165.818,207.782 170.891,204.856 176.592,201.727C177.761,200.79 178.93,199.853 180.812,198.962C188.83,194.315 196.825,189.63 204.878,185.044C207.56,183.517 209.173,181.956 209.121,178.303C208.845,158.892 208.963,139.476 208.984,119.209C208.971,117.785 208.958,116.362 208.99,114.01C208.975,107.361 208.96,100.711 208.984,93.208Z" style="fill:rgb(40,169,225);fill-rule:nonzero;"/>
            </g>
            <g transform="matrix(0.980769,0,0,0.763158,45.5498,-233.954)">
                <path d="M169.097,35.092C166.427,33.664 163.758,32.237 161.361,30.335C166.099,27.238 170.56,24.608 175.032,21.996C187.019,14.993 199.01,7.998 211,1C212.067,1 213.133,1 214.6,1C219.888,4.086 224.696,7.307 229.677,10.233C248.169,21.095 266.708,31.878 285.25,42.654C296.204,49.019 307.254,55.224 318.11,61.752C319.533,62.608 320.874,64.954 320.88,66.615C321.035,105.742 320.933,144.871 321.127,183.998C321.143,187.15 319.597,188.554 317.604,189.705C299.035,200.429 280.383,211.01 261.775,221.669C246.13,230.632 230.524,239.664 214.857,248.587C213.757,249.214 211.911,249.868 211.052,249.381C198.196,242.088 185.453,234.595 172.669,227.174C168.88,224.974 165.045,222.853 161.05,220.385C163.355,218.68 165.841,217.285 169.065,215.942C183.381,223.965 196.938,231.974 210.581,239.832C211.571,240.403 213.385,240.293 214.48,239.781C217.12,238.549 219.55,236.873 222.084,235.408C238.534,225.896 254.989,216.394 271.442,206.887C284.67,199.243 297.921,191.638 311.077,183.872C312.066,183.288 312.917,181.551 312.92,180.347C313.017,143.549 313.016,106.75 312.918,69.952C312.915,68.821 311.989,67.223 311.015,66.639C304.335,62.627 297.524,58.834 290.762,54.96C265.671,40.585 240.538,26.28 215.566,11.699C213.322,10.389 212.05,10.266 210.018,11.449C196.403,19.374 182.743,27.22 169.097,35.092Z" style="fill:rgb(0,167,157);fill-rule:nonzero;"/>
            </g>
            <g transform="matrix(0.980769,0,0,0.763158,45.5498,-233.954)">
                <path d="M179.881,50.81C180.053,54.25 179.573,57.491 180.1,60.559C181.041,66.041 178.566,68.987 173.926,71.058C171.563,72.113 169.319,73.514 167.188,74.997C162.694,78.124 158.31,78.362 153.872,74.981C153.613,74.784 153.314,74.624 153.012,74.504C142.527,70.326 137.472,63.253 142.344,50.448C132.101,56.272 123.459,61.021 115.035,66.13C113.555,67.027 112.241,69.385 112.136,71.145C111.78,77.117 112,83.124 112,89.78C116.018,87.474 119.573,85.063 123.444,83.378C125.205,82.612 127.907,82.617 129.634,83.433C134.026,85.51 138.011,88.432 142.35,90.642C145.086,92.036 146.253,93.774 146.052,96.843C145.825,100.325 145.529,103.912 146.098,107.314C147.272,114.336 144.168,118.384 138.072,121.035C135.702,122.065 133.389,123.399 131.347,124.979C126.571,128.675 122.844,125.446 118.925,123.389C116.822,122.284 114.804,121.016 112,119.388C112,127.546 112,134.805 112,142.065C112,154.387 111.902,166.71 112.112,179.029C112.141,180.764 113.209,183.229 114.583,184.073C122.996,189.233 131.635,194.024 141,199.397C141,194.431 140.778,190.028 141.118,185.668C141.24,184.093 142.343,182.086 143.632,181.206C147.238,178.747 151.175,176.774 156.033,174.011C150.703,170.909 146.049,168.2 141.145,165.345L141.145,141.642C146.145,138.765 151.365,136.123 156.173,132.871C159.464,130.645 162.108,131.193 165.114,133C169.291,135.51 173.633,137.754 177.725,140.391C178.819,141.097 179.852,142.795 179.899,144.075C180.123,150.228 180.177,156.402 179.873,162.548C179.799,164.052 178.48,165.969 177.166,166.847C173.559,169.257 169.651,171.215 165.03,173.821C169.62,176.537 173.604,178.596 177.21,181.181C178.586,182.167 179.707,184.3 179.877,186.016C180.269,189.974 180.009,193.996 180.056,198.454C178.93,199.853 177.761,200.79 176.297,201.369C176.001,200.013 175.86,198.992 176.022,198.022C177.455,189.423 175.344,183.217 166.375,179.533C161.817,177.661 158.526,176.804 154.474,179.92C151.659,182.085 148.383,183.651 145,185.67C145,189.848 144.718,194.354 145.144,198.793C145.306,200.479 146.76,202.48 148.212,203.517C152.001,206.222 156.113,208.473 160.097,210.905C157.618,212.279 155.138,213.653 152.285,215.062C137.309,206.606 122.66,198.194 108.174,189.51C106.626,188.582 105.139,186.063 105.132,184.275C104.959,144.814 104.967,105.351 105.114,65.89C105.12,64.195 106.351,61.756 107.756,60.931C122.321,52.377 137.039,44.084 151.825,35.385C154.518,36.457 157.101,37.862 159.521,39.706C157.576,41.263 155.908,42.654 153.991,43.445C147.206,46.246 143.758,50.593 144.826,58.472C145.376,62.535 144.875,66.083 149.972,67.684C153.122,68.674 155.741,71.267 158.741,72.873C159.653,73.361 161.242,73.363 162.184,72.901C176.206,66.024 176.193,65.997 175.988,50.046C175.984,49.714 175.946,49.382 175.924,49.05C177.177,49.544 178.429,50.038 179.881,50.81M149.313,141.951C145.675,143.195 144.518,145.707 144.93,149.476C145.272,152.598 144.654,155.84 145.127,158.927C145.422,160.849 146.522,163.172 148.024,164.275C151.136,166.56 154.711,168.242 158.183,170C161.176,171.515 175.403,164.36 175.981,161.16C176.039,160.838 175.999,160.497 175.999,160.164C175.999,155.675 176.103,151.181 175.919,146.699C175.878,145.687 175.066,144.404 174.217,143.773C166.972,138.384 159.675,132.8 150.806,141.028C150.572,141.245 150.249,141.366 149.313,141.951M113.02,114.982C116.41,116.89 119.832,118.743 123.181,120.721C126.638,122.764 141.709,115.847 141.93,111.85C142.205,106.885 142.032,101.892 141.943,96.913C141.932,96.267 141.437,95.365 140.892,95.034C136.597,92.431 132.266,89.882 127.864,87.466C127.147,87.073 125.854,87.094 125.119,87.479C121.246,89.506 117.37,91.563 113.719,93.953C112.742,94.593 112.102,96.428 112.079,97.729C111.979,103.361 112.164,108.998 113.02,114.982Z" style="fill:rgb(0,167,157);fill-rule:nonzero;"/>
            </g>
            <g transform="matrix(0.980769,0,0,0.763158,45.5498,-233.954)">
                <path d="M208.964,93.635C205.221,92.155 201.606,89.968 197.724,88.472C196.011,87.812 193.513,88.004 191.798,88.768C187.518,90.675 183.483,93.131 179.164,95.467L179.164,113.431C182.863,115.614 186.798,117.786 190.571,120.209C193.47,122.072 195.854,122.625 198.93,120.139C201.64,117.949 205.094,116.68 208.582,114.971C208.958,116.362 208.971,117.785 208.964,119.635C205.219,121.956 201.568,124.03 197.729,125.656C196.193,126.306 193.917,126.635 192.532,125.965C187.283,123.425 182.157,120.581 177.228,117.466C176.014,116.699 175.189,114.509 175.099,112.922C174.826,108.111 175.382,103.234 174.888,98.459C174.435,94.084 176.496,91.85 179.875,90.013C184.156,87.686 188.329,85.153 192.677,82.962C193.719,82.437 195.456,82.499 196.546,83.002C200.511,84.831 204.337,86.961 208.58,88.958C208.958,90.362 208.971,91.785 208.964,93.635Z" style="fill:rgb(0,167,157);fill-rule:nonzero;"/>
            </g>
            <g transform="matrix(0.980769,0,0,0.763158,45.5498,-233.954)">
                <rect x="51.277" y="95.244" width="12.723" height="60.419" style="fill:rgb(40,169,225);fill-rule:nonzero;"/>
            </g>
            <g transform="matrix(0.980769,0,0,0.763158,45.5498,-233.954)">
                <path d="M254,156L248.307,156L248.307,94.571C258.112,95.056 268.02,94.841 277.696,96.235C286.425,97.492 291.741,108.974 289.848,118.532C286.9,133.414 271.831,137.468 260.022,135.472L260.022,156L254,156M260,106.062L260,124.911C266.394,125.069 272.822,125.884 275.784,119.725C277.159,116.865 276.955,111.822 275.255,109.204C271.7,103.728 265.511,106.539 260,106.062Z" style="fill:rgb(0,167,157);fill-rule:nonzero;"/>
            </g>
        </g>
    </g>
</svg>
