<?xml version="1.0" encoding="UTF-8" standalone="no"?>
<!DOCTYPE svg PUBLIC "-//W3C//DTD SVG 1.1//EN" "http://www.w3.org/Graphics/SVG/1.1/DTD/svg11.dtd">
<svg width="100%" height="100%" viewBox="0 0 788 365" version="1.1" xmlns="http://www.w3.org/2000/svg" xmlns:xlink="http://www.w3.org/1999/xlink" xml:space="preserve" xmlns:serif="http://www.serif.com/" style="fill-rule:evenodd;clip-rule:evenodd;stroke-linejoin:round;stroke-miterlimit:2;">
    <g id="Artboard1" transform="matrix(1,0,0,1,-247.973,-620.78)">
        <rect x="247.973" y="620.78" width="787.883" height="364.895" style="fill:none;"/>
        <g transform="matrix(1.64467,0,0,1.64472,-481.5,615.981)">
            <path d="M801,56L801,74C801,74 799,75 798,75L765,75C762,75 760,75 757,76C745,78 739,86 739,99L796,99C801,99 801,99 801,105L801,119L743,119C738,119 738,119 739,125C739,128 740,132 742,136C745,142 752,144 759,145L798,145C800,145 801,145 801,148L801,162C801,163 801,164 799,164C784,164 770,165 755,164C732,164 715,147 713,124C711,112 711,100 715,88C719,71 730,60 748,57C755,56 762,56 769,56L801,56Z" style="fill:rgb(0,124,195);fill-rule:nonzero;"/>
        </g>
        <g transform="matrix(1.64467,0,0,1.64472,-481.5,615.981)">
            <path d="M621,56L641,56C643,56 643,57 643,59L643,121C643,130 647,137 654,142C666,149 680,142 685,129C690,113 677,99 664,100C660,101 656,100 651,100L651,80C651,79 652,78 653,78C664,78 675,77 685,83C699,90 707,102 708,119C709,131 706,142 697,152C689,161 679,166 667,166C655,167 645,164 635,156C626,147 621,136 621,124C620,102 621,80 621,58L621,56Z" style="fill:rgb(0,124,195);fill-rule:nonzero;"/>
        </g>
        <g transform="matrix(1.64467,0,0,1.64472,-481.5,615.981)">
            <path d="M587,142L587,164C575,164 562,166 551,159C536,149 529,135 530,117C532,100 540,87 555,80C582,68 612,84 617,112C618,115 618,118 618,121L618,161C618,164 617,165 614,164L599,164C596,164 595,164 595,161L595,122C595,115 593,109 588,104C581,96 568,96 560,104C549,115 551,131 562,139C566,142 570,142 575,142L587,142Z" style="fill:rgb(0,124,195);fill-rule:nonzero;"/>
        </g>
        <g transform="matrix(1.64467,0,0,1.64472,-481.5,615.981)">
            <path d="M830,164L809,164C808,164 807,163 807,163C807,153 805,144 809,135C811,130 814,125 817,120C809,113 807,103 807,91L807,80C807,79 807,78 809,78L830,78C830,84 829,90 830,96C830,106 839,113 849,109C854,108 857,104 857,98C858,93 858,87 858,81L858,78L873,78C881,78 881,78 881,85C880,90 880,96 880,101C879,108 875,115 869,121C870,122 871,123 872,124C878,131 880,140 880,148C881,153 881,157 881,161C881,163 880,164 878,164L858,164L858,155C858,151 858,148 857,144C856,136 851,131 843,131C835,131 830,137 830,145C829,151 830,158 830,164Z" style="fill:rgb(0,124,195);fill-rule:nonzero;"/>
        </g>
        <g transform="matrix(1.64467,0,0,1.64472,-481.5,615.981)">
            <path d="M492,56L513,56C515,56 515,57 515,59L515,132C515,141 519,145 528,145C530,145 531,146 531,148L531,164C531,165 530,166 529,166C518,167 507,165 500,155C494,149 492,140 492,132L492,56Z" style="fill:rgb(0,124,195);fill-rule:nonzero;"/>
        </g>
    </g>
</svg>
